<?xml version="1.0" encoding="UTF-8" standalone="no"?>
<!DOCTYPE svg PUBLIC "-//W3C//DTD SVG 1.1//EN" "http://www.w3.org/Graphics/SVG/1.1/DTD/svg11.dtd">
<svg width="100%" height="100%" viewBox="0 0 96 92" version="1.1" xmlns="http://www.w3.org/2000/svg" xmlns:xlink="http://www.w3.org/1999/xlink" xml:space="preserve" xmlns:serif="http://www.serif.com/" style="fill-rule:evenodd;clip-rule:evenodd;stroke-linejoin:round;stroke-miterlimit:2;">
    <g transform="matrix(1,0,0,1,-2.23521,-2)">
        <g transform="matrix(1.23457,0,0,1.23457,-30.8642,-20.2222)">
            <path d="M62.208,20.296C62.716,18.917 64.03,18 65.5,18C66.97,18 68.284,18.917 68.792,20.296L75.212,37.741C75.747,39.192 76.7,40.453 77.951,41.362C79.203,42.271 80.696,42.789 82.242,42.848L100.817,43.564C102.286,43.62 103.564,44.587 104.018,45.985C104.472,47.383 104.006,48.916 102.851,49.825L88.245,61.322C87.029,62.279 86.125,63.575 85.647,65.046C85.169,66.517 85.138,68.097 85.559,69.586L90.619,87.473C91.019,88.887 90.495,90.401 89.305,91.265C88.116,92.129 86.514,92.16 85.292,91.342L69.845,81.003C68.559,80.143 67.047,79.684 65.5,79.684C63.953,79.684 62.441,80.143 61.155,81.003L45.708,91.342C44.486,92.16 42.884,92.129 41.695,91.265C40.505,90.401 39.981,88.887 40.381,87.473L45.441,69.586C45.862,68.097 45.831,66.517 45.353,65.046C44.875,63.575 43.971,62.279 42.755,61.322L28.149,49.825C26.994,48.916 26.528,47.383 26.982,45.985C27.436,44.587 28.714,43.62 30.183,43.564L48.758,42.848C50.304,42.789 51.797,42.271 53.049,41.362C54.3,40.453 55.253,39.192 55.788,37.741L62.208,20.296Z" style="fill:rgb(0,20,255);"/>
        </g>
    </g>
</svg>
